<svg width="512" height="512" viewBox="0 0 512 512" fill="none" xmlns="http://www.w3.org/2000/svg">
<path fill-rule="evenodd" clip-rule="evenodd" d="M195.126 252.869L387.126 444.869C389.217 446.96 391.947 447.984 394.678 447.984C397.387 447.984 400.118 446.96 402.209 444.869C406.369 440.709 406.369 433.947 402.209 429.787L217.761 245.317L402.209 60.8694C406.369 56.7094 406.369 49.9467 402.209 45.7867C398.049 41.6267 391.286 41.6267 387.126 45.7867L195.126 237.787C190.966 241.947 190.966 248.709 195.126 252.869Z" fill="white"/>
<path fill-rule="evenodd" clip-rule="evenodd" d="M216.459 444.869C218.55 446.96 221.28 447.984 224.011 447.984C226.72 447.984 229.451 446.96 231.542 444.869C235.702 440.709 235.702 433.947 231.542 429.787L47.0935 245.317L231.542 60.8694C235.702 56.7094 235.702 49.9467 231.542 45.7867C227.382 41.6267 220.619 41.6267 216.459 45.7867L24.4589 237.787C20.2989 241.947 20.2989 248.709 24.4589 252.869L216.459 444.869Z" fill="white"/>
</svg>
